<svg width="41" height="41" viewBox="0 0 41 41" fill="none" xmlns="http://www.w3.org/2000/svg">
<path d="M23.8473 20.3871L40.4523 3.78215C40.8255 3.34641 41.0204 2.7859 40.9983 2.21264C40.9762 1.63938 40.7385 1.09558 40.3329 0.689924C39.9272 0.284265 39.3834 0.0466175 38.8101 0.0244749C38.2369 0.00233223 37.6764 0.197325 37.2406 0.570485L20.6356 17.1755L4.03063 0.547707C3.59489 0.174547 3.03438 -0.0204439 2.46112 0.00169873C1.88785 0.0238414 1.34406 0.261486 0.938401 0.667146C0.532741 1.07281 0.295094 1.6166 0.272952 2.18986C0.250809 2.76312 0.445802 3.32363 0.818962 3.75937L17.424 20.3871L0.796183 36.9922C0.557742 37.1963 0.364084 37.4476 0.227365 37.7302C0.0906448 38.0128 0.013814 38.3206 0.00169735 38.6343C-0.0104193 38.948 0.0424387 39.2608 0.156953 39.5531C0.271467 39.8454 0.445167 40.1109 0.667147 40.3329C0.889127 40.5548 1.1546 40.7285 1.44689 40.843C1.73919 40.9576 2.052 41.0104 2.36569 40.9983C2.67939 40.9862 2.98719 40.9094 3.26978 40.7726C3.55237 40.6359 3.80365 40.4423 4.00785 40.2038L20.6356 23.5988L37.2406 40.2038C37.6764 40.577 38.2369 40.772 38.8101 40.7498C39.3834 40.7277 39.9272 40.49 40.3329 40.0844C40.7385 39.6787 40.9762 39.1349 40.9983 38.5617C41.0204 37.9884 40.8255 37.4279 40.4523 36.9922L23.8473 20.3871Z" fill="white"/>
</svg>
